<svg width="50" height="50" viewBox="0 0 50 50" fill="none" xmlns="http://www.w3.org/2000/svg">
<g clip-path="url(#clip0_34_141)">
<rect width="50" height="50" rx="25" fill="white"/>
<path d="M24.567 7.75C24.7594 7.41667 25.2406 7.41667 25.433 7.75L41.8875 36.25C42.0799 36.5833 41.8394 37 41.4545 37H8.54552C8.16062 37 7.92005 36.5833 8.1125 36.25L24.567 7.75Z" fill="#0F0F0F"/>
<path d="M24.567 17.75C24.7594 17.4167 25.2406 17.4167 25.433 17.75L41.8875 46.25C42.0799 46.5833 41.8394 47 41.4545 47H8.54552C8.16062 47 7.92005 46.5833 8.1125 46.25L24.567 17.75Z" fill="white"/>
<path d="M8 28L19.0714 23L25.7143 27L32.3571 23L39 19V26L32.3571 30L25.7143 34L19.0714 30L8 35V28Z" fill="white"/>
<path d="M8 29.3228C8 29.1263 8.11511 28.948 8.29421 28.8671L18.8324 24.1079C18.9821 24.0404 19.1554 24.0506 19.2961 24.1353L25.4564 27.8447C25.615 27.9402 25.8135 27.9402 25.9722 27.8447L32.3571 24L38.2421 20.4564C38.5753 20.2557 39 20.4957 39 20.8847V24.7174C39 24.8928 38.9081 25.0553 38.7579 25.1458L32.3571 29L25.9722 32.8447C25.8135 32.9402 25.615 32.9402 25.4564 32.8447L19.2961 29.1353C19.1554 29.0506 18.9821 29.0404 18.8324 29.1079L8.70579 33.6813C8.37486 33.8307 8 33.5887 8 33.2256V29.3228Z" fill="#0F0F0F"/>
</g>
<defs>
<clipPath id="clip0_34_141">
<rect width="50" height="50" rx="25" fill="white"/>
</clipPath>
</defs>
</svg>
